<svg width="182" height="48" viewBox="0 0 182 48" fill="none" xmlns="http://www.w3.org/2000/svg">
<g clip-path="url(#clip0_2_86)">
<path d="M47.0678 24.9436L44.0738 41.1538C43.966 41.7191 43.6958 42.2437 43.2941 42.6675C42.8924 43.0913 42.3755 43.3974 41.8024 43.5506L26.719 47.6755C26.1362 47.8341 25.5194 47.8341 24.9366 47.6755L9.85321 43.5506C9.2801 43.3974 8.76316 43.0913 8.36148 42.6675C7.9598 42.2437 7.68959 41.7191 7.58174 41.1538L4.58777 24.9436H47.0678Z" fill="#FF4444"/>
<path d="M25.8278 30.1929V47.7949C25.5265 47.7953 25.2265 47.7552 24.9366 47.6759L9.85321 43.551C9.2801 43.3978 8.76316 43.0917 8.36148 42.6679C7.9598 42.2441 7.68959 41.7195 7.58174 41.1543L4.58777 24.9436H14.8174L25.8278 30.1929Z" fill="#FF4444"/>
<path d="M50.4276 18.1554L49.6924 24.2688C49.6373 24.6994 49.4418 25.1018 49.1343 25.4178C48.8269 25.7339 48.4233 25.9471 47.9821 26.0267L26.2445 30.1146C25.9691 30.1659 25.6861 30.1659 25.4106 30.1146L3.67305 26.0267C3.23186 25.9471 2.82832 25.7339 2.52085 25.4178C2.21338 25.1018 2.01793 24.6994 1.96281 24.2688L1.22758 18.1554C1.19007 17.8382 1.23154 17.5171 1.34855 17.2186C1.46556 16.9201 1.65471 16.653 1.90022 16.4396C2.19694 16.1795 2.56293 16.0047 2.95691 15.935L25.4297 11.9147C25.6925 11.8686 25.9617 11.8686 26.2244 11.9147L48.6983 15.935C49.0923 16.0047 49.4582 16.1795 49.755 16.4396C50.0005 16.653 50.1896 16.9201 50.3066 17.2186C50.4236 17.5171 50.4651 17.8382 50.4276 18.1554Z" fill="#FF4444"/>
<path d="M49.755 16.4399L26.2106 20.5002C25.9573 20.5443 25.6979 20.5443 25.4446 20.5002L1.90021 16.4399C2.19693 16.1799 2.56292 16.0051 2.9569 15.9354L25.4297 11.9151C25.6925 11.869 25.9616 11.869 26.2244 11.9151L48.6983 15.9354C49.0922 16.0051 49.4582 16.1799 49.755 16.4399Z" fill="#FF4444"/>
<path d="M24.8539 15.6767L34.0246 19.1526C34.0246 19.1526 35.2471 29.5588 32.7748 46.0189C32.7748 46.0189 35.8802 46.0175 38.7649 44.3809C38.7649 44.3809 41.7718 31.6524 41.795 17.8126L33.3245 14.7161L26.3279 14.2775L24.8539 15.6767Z" fill="#32C60D"/>
<path d="M26.7076 15.6766L15.4787 18.7816C15.4787 18.7816 15.9986 35.5625 18.4742 45.908C18.4742 45.908 15.3286 46.0394 12.0304 44.1459C12.0304 44.1459 8.08374 27.2009 7.4389 17.3952C7.4389 17.3952 10.5016 16.1256 15.8097 15.2481C21.1178 14.3705 28.1681 13.6723 26.7076 15.6766ZM27.5267 16.0767C27.5267 16.0767 42.9931 18.8157 47.2622 8.92344C51.5313 -0.96885 33.1816 -6.07457 27.5267 13.8696V16.0767Z" fill="#32C60D"/>
<path d="M28.1638 14.8304V14.8294C28.1638 14.8284 28.1648 14.8284 28.1648 14.8274C28.2136 14.6479 30.8638 5.02696 37.2072 3.55219C39.2686 3.07324 41.0542 3.89576 41.887 5.28746H41.8881C43.6439 8.22163 41.1762 13.6838 28.1638 14.8304Z" fill="#32C60D"/>
<path d="M28.1638 14.8304V14.8294C28.1638 14.8284 28.1648 14.8284 28.1648 14.8273C34.7448 6.03302 39.4543 4.98796 41.887 5.28742H41.8881C43.6439 8.22159 41.1762 13.6838 28.1638 14.8304Z" fill="#22AA00"/>
<path d="M25.4945 16.0767C25.4945 16.0767 10.0281 18.8157 5.75896 8.92344C1.48984 -0.96885 19.8396 -6.07458 25.4945 13.8696V16.0767Z" fill="#32C60D"/>
<path d="M24.8579 14.8304C11.8454 13.6838 9.3777 8.22163 11.1346 5.28746C11.9675 3.89576 13.753 3.07324 15.8144 3.55219C22.1673 5.03004 24.8165 14.6776 24.8568 14.8284V14.8294C24.8571 14.8294 24.8574 14.8295 24.8576 14.8297C24.8578 14.8299 24.8579 14.8302 24.8579 14.8304Z" fill="#32C60D"/>
<path d="M24.8579 14.8304C11.8454 13.6838 9.3777 8.22158 11.1346 5.28741C13.5684 4.98897 18.2769 6.03403 24.8568 14.8283V14.8294C24.8571 14.8294 24.8574 14.8295 24.8576 14.8297C24.8578 14.8299 24.8579 14.8301 24.8579 14.8304Z" fill="#22AA00"/>
<path d="M24.1609 10.1079C24.1609 10.1079 26.5673 8.67848 28.8421 10.1499C28.8421 10.1499 31.563 17.6723 25.9738 17.6723C19.0355 17.6723 24.1609 10.1079 24.1609 10.1079Z" fill="#22AA00"/>
<path d="M48.7367 15.7333L42.1766 14.5601C44.6454 13.2781 46.4153 11.4187 47.4582 9.00211C48.2558 7.1534 48.3256 5.3569 47.6598 3.80675C47.0473 2.38048 45.8284 1.23871 44.2278 0.591773C41.8331 -0.37596 38.9257 -0.148897 36.251 1.21502C34.0778 2.32335 31.0262 4.72115 28.7458 9.84954C26.8484 8.76766 24.899 9.51992 24.2643 9.82267C21.9799 4.70095 18.9259 2.30982 16.7522 1.20609C14.0798 -0.151051 11.176 -0.373806 8.7859 0.59485C7.18685 1.2426 5.97016 2.38448 5.35906 3.81013C4.69492 5.35947 4.76494 7.15484 5.56276 9.00211C6.55527 11.3018 8.21267 13.1002 10.5067 14.3761L2.91795 15.7334C2.34019 15.8338 1.82309 16.1417 1.47042 16.5953C1.11775 17.0489 0.955608 17.6147 1.01653 18.1791L1.75187 24.2926C1.81117 24.7668 2.02561 25.2103 2.36394 25.5585C2.70227 25.9066 3.14679 26.1412 3.6327 26.228L4.6442 26.4181L7.37241 41.1901C7.48969 41.7923 7.77864 42.3508 8.20668 42.8028C8.63473 43.2547 9.18486 43.5821 9.79507 43.7481L11.9468 44.3359C14.8618 46.0007 17.6175 46.115 18.3171 46.115C18.3746 46.115 18.4164 46.1143 18.445 46.1136L24.8786 47.8728C25.499 48.0424 26.1558 48.0424 26.7763 47.8728L32.8046 46.224C33.1441 46.22 36.0671 46.1389 38.8468 44.572L41.8599 43.7481C42.4701 43.5821 43.0202 43.2547 43.4483 42.8027C43.8763 42.3507 44.1653 41.7921 44.2825 41.1899L47.0111 26.4182L48.0225 26.228C48.5084 26.1411 48.9529 25.9065 49.2912 25.5583C49.6294 25.2102 49.8439 24.7667 49.9032 24.2925L50.6384 18.179C50.6992 17.6145 50.537 17.0487 50.1843 16.5951C49.8316 16.1415 49.3144 15.8336 48.7367 15.7333ZM36.4494 1.57786C39.0117 0.271383 41.7872 0.0497566 44.0645 0.970313C46.7769 2.06645 48.7571 4.92626 47.0669 8.84417C45.8868 11.5791 43.8473 13.3362 41.5096 14.4465C41.4808 14.4478 41.4526 14.4548 41.4267 14.467C41.4008 14.4793 41.3777 14.4964 41.3589 14.5175C39.9688 15.1415 38.4998 15.5858 36.9897 15.8389C36.9614 15.8323 36.9321 15.8314 36.9034 15.8363C36.8748 15.8412 36.8475 15.8517 36.8232 15.8673C33.9382 16.3542 31.1321 16.256 29.2729 16.0849C29.4531 15.7029 29.5764 15.298 29.6391 14.8824C33.3054 14.4422 36.2912 13.6125 38.5136 12.414C40.424 11.3839 41.7311 10.0861 42.2945 8.66223C42.8711 7.20386 42.6188 5.67678 41.6194 4.57747C40.5564 3.40831 38.8884 2.95019 37.1573 3.35272C33.339 4.24026 30.8352 7.94289 29.3499 11.1179C29.2332 10.655 29.1211 10.3101 29.0698 10.1601C31.3078 5.03846 34.3151 2.6659 36.4494 1.57786ZM29.696 13.2071C32.3114 10.0039 34.8475 7.75613 37.2345 6.52678C37.2841 6.5012 37.3213 6.45759 37.3377 6.40554C37.3541 6.3535 37.3485 6.29728 37.322 6.24926C37.2955 6.20123 37.2504 6.16534 37.1966 6.14948C37.1427 6.13361 37.0846 6.13907 37.0349 6.16465C34.6802 7.37749 32.1932 9.54812 29.6376 12.6196C29.6008 12.3325 29.5541 12.0569 29.5031 11.7992C30.9141 8.60777 33.3985 4.64792 37.2566 3.75116C38.8318 3.38493 40.344 3.79475 41.3006 4.84781C42.1942 5.83072 42.4175 7.20181 41.8982 8.51537C41.339 9.92943 39.031 13.3183 29.6912 14.4628C29.726 14.0449 29.7276 13.6251 29.696 13.2071ZM24.3115 10.2608C24.6239 10.0926 26.7049 9.06333 28.6639 10.2823C28.8432 10.8145 30.0023 14.4786 28.6263 16.3517C28.0827 17.0919 27.1901 17.4672 25.974 17.4672C24.3583 17.4672 23.3033 17.0455 22.8382 16.2138C22.5747 15.7429 22.5118 15.1728 22.5698 14.5742V14.5719C22.5706 14.5676 22.5698 14.5634 22.5706 14.5591C22.7566 12.7043 24.1036 10.5789 24.3115 10.2608ZM33.2469 19.078L26.1727 20.2984C25.9442 20.3383 25.7101 20.3383 25.4816 20.2984L16.4185 18.7359L22.8823 16.9482C23.5218 17.5649 24.5567 17.8779 25.9736 17.8779C26.946 17.8779 27.7375 17.6558 28.3394 17.2183L33.2469 19.078ZM15.9371 6.60605C18.0851 7.74824 20.3579 9.71611 22.6934 12.4533C22.4477 13.0494 22.2738 13.6709 22.1752 14.3055C13.6663 13.0116 11.5898 9.77313 11.0911 8.43219C10.6085 7.1333 10.8527 5.78385 11.7445 4.82217C12.7027 3.78921 14.2059 3.38893 15.7645 3.75126C19.4367 4.60516 21.8606 8.26841 23.2583 11.2308C23.1222 11.491 22.9944 11.7552 22.8751 12.0229C20.5561 9.33378 18.2918 7.38959 16.1416 6.24628C16.0926 6.22293 16.0362 6.21873 15.9841 6.23456C15.932 6.25039 15.8882 6.28503 15.8619 6.33127C15.8355 6.37751 15.8287 6.43179 15.8427 6.48282C15.8567 6.53385 15.8905 6.57769 15.9371 6.60523V6.60605ZM5.95446 8.84417C4.26481 4.93006 6.24155 2.07065 8.94992 0.973082C11.2229 0.0520128 13.9948 0.26923 16.555 1.56915C18.6825 2.64949 21.6809 5.00482 23.9213 10.0893C23.8398 10.2144 23.689 10.4534 23.507 10.7742C22.0499 7.78301 19.5822 4.21728 15.8639 3.35262C14.1505 2.95439 12.4926 3.40144 11.4286 4.54855C10.4313 5.62396 10.1555 7.12756 10.6917 8.57075C11.7963 11.544 15.9624 13.7774 22.1335 14.7139C22.0919 15.213 22.167 15.7147 22.3532 16.1819C20.0583 16.2926 17.0344 16.2053 14.1477 15.4091C14.1071 15.3799 14.0569 15.3658 14.0065 15.3694C13.0685 15.1069 12.1581 14.7597 11.2875 14.3323C11.2554 14.2996 11.213 14.2779 11.167 14.2708C8.97125 13.1534 7.07429 11.4389 5.95446 8.84417ZM3.71323 25.8252C3.3159 25.7548 2.95224 25.5635 2.67525 25.2793C2.39826 24.9951 2.22243 24.6327 2.17338 24.2451L1.43815 18.1322C1.38931 17.6711 1.52267 17.2091 1.81148 16.8391C2.10029 16.4691 2.52318 16.2183 2.99529 16.1371L11.1001 14.6875C11.7739 15.0188 12.4717 15.3023 13.188 15.5359C9.83665 16.2554 7.78098 17.0384 7.41527 17.1829L5.67947 16.8833C5.65189 16.8783 5.62354 16.8786 5.59608 16.8842C5.56861 16.8898 5.54257 16.9006 5.51946 16.916C5.49635 16.9314 5.47663 16.9511 5.46144 16.9739C5.44626 16.9967 5.43591 17.0222 5.431 17.049C5.42608 17.0757 5.4267 17.1031 5.43282 17.1296C5.43894 17.156 5.45043 17.1811 5.46663 17.2033C5.48284 17.2254 5.50343 17.2442 5.52721 17.2587C5.551 17.2731 5.57751 17.2828 5.6052 17.2872L7.23905 17.569C7.42333 20.2477 7.85036 23.4551 8.37341 26.7012L3.71323 25.8252ZM9.9105 43.3532C9.37673 43.2085 8.8954 42.9225 8.52078 42.5274C8.14615 42.1324 7.89312 41.6441 7.79021 41.1175L5.09033 26.5021L8.4429 27.1323C9.66669 34.6162 11.3658 42.1891 11.7457 43.8547L9.9105 43.3532ZM12.2169 44.0138C11.9133 42.6958 8.30084 26.8675 7.66077 17.5295C8.22222 17.3131 10.4723 16.4923 14.0109 15.7845C16.3696 16.4402 18.7958 16.6293 20.8054 16.6293C21.4408 16.6293 22.0341 16.6103 22.5711 16.5814C22.5761 16.5887 22.5817 16.5956 22.5866 16.6027L15.4206 18.5848C15.4134 18.587 15.4063 18.5895 15.3994 18.5925C15.3971 18.5934 15.3949 18.594 15.3928 18.5949C15.3544 18.6114 15.3218 18.6386 15.2994 18.673C15.277 18.7073 15.2656 18.7474 15.2668 18.788C15.2693 18.8708 15.402 22.9711 15.8291 28.3355C15.8269 28.3582 15.8288 28.3811 15.8345 28.4032C16.2682 33.8372 17.003 40.5517 18.208 45.7021C16.0985 45.6196 14.0418 45.0401 12.2169 44.0138ZM25.6154 47.5826C25.4051 47.5685 25.197 47.5335 24.9942 47.4781L18.6535 45.7442C17.4522 40.6714 16.7147 34.0299 16.2762 28.6062L25.3702 30.316C25.4512 30.331 25.533 30.3419 25.6152 30.3486L25.6154 47.5826ZM25.4509 29.9132L16.242 28.1818C15.8819 23.6198 15.735 19.9941 15.6997 19.0282L25.4067 20.7017C25.6847 20.7502 25.9695 20.7502 26.2475 20.7017L33.8356 19.393C33.9165 20.2237 34.1829 23.4112 34.0883 28.4302L26.204 29.9132C25.9553 29.9598 25.6996 29.9598 25.4509 29.9132ZM32.5838 45.8581L26.6608 47.4785C26.458 47.5337 26.2499 47.5686 26.0398 47.5826V30.3485C26.122 30.3417 26.2039 30.3308 26.285 30.3159L34.0799 28.8493C33.9368 34.5429 33.4372 40.2229 32.5838 45.8581ZM38.5782 44.2491C36.263 45.5356 33.7952 45.7646 33.0207 45.8053C33.8772 40.1214 34.3739 34.3922 34.5081 28.6498C34.5162 28.6203 34.5173 28.5895 34.5115 28.5596C34.5115 28.5579 34.5104 28.5563 34.51 28.5546C34.628 22.615 34.242 19.1884 34.235 19.1296C34.235 19.1278 34.2339 19.1263 34.2336 19.1244C34.2333 19.1226 34.2336 19.1193 34.233 19.1167C34.2304 19.1027 34.2264 19.0889 34.2209 19.0757C34.2209 19.0747 34.2197 19.0739 34.2193 19.0728C34.2129 19.0585 34.2049 19.045 34.1953 19.0324C34.1926 19.029 34.1899 19.0258 34.187 19.0222C34.178 19.0116 34.1679 19.002 34.1569 18.9934C34.1545 18.9914 34.1523 18.9893 34.1497 18.9874C34.1356 18.9773 34.1202 18.969 34.104 18.9627C34.1032 18.9622 34.1024 18.9618 34.1016 18.9614L28.6961 16.9124C28.7963 16.8111 28.8887 16.703 28.9727 16.5888C28.9997 16.5522 29.0234 16.5137 29.0486 16.476C30.0992 16.5773 31.1544 16.6281 32.2102 16.6282C33.7881 16.6339 35.3636 16.5069 36.9188 16.2487L41.5821 17.9543C41.5401 30.965 38.8387 43.1069 38.5776 44.2491H38.5782ZM43.865 41.1177C43.7621 41.6443 43.509 42.1326 43.1344 42.5276C42.7597 42.9226 42.2784 43.2087 41.7446 43.3534L39.048 44.0909C40.2235 38.5955 41.0599 33.0373 41.5529 27.4458L46.5649 26.5029L43.865 41.1177ZM50.2166 18.1322L49.4814 24.2446C49.4324 24.6323 49.2565 24.9946 48.9795 25.2789C48.7025 25.5632 48.3388 25.7545 47.9414 25.8249L41.5894 27.0199C41.8334 24.1493 41.995 21.0921 42.0058 17.9846L44.2514 17.5971C44.2794 17.593 44.3063 17.5835 44.3304 17.5692C44.3545 17.5549 44.3755 17.5361 44.392 17.5139C44.4085 17.4916 44.4202 17.4664 44.4265 17.4397C44.4327 17.413 44.4334 17.3854 44.4284 17.3585C44.4235 17.3315 44.413 17.3058 44.3976 17.2828C44.3822 17.2599 44.3622 17.2401 44.3388 17.2247C44.3154 17.2093 44.289 17.1986 44.2612 17.1933C44.2335 17.1879 44.2049 17.1879 44.1772 17.1934L41.8149 17.6009L37.7083 16.099C37.9106 16.0568 38.1129 16.0126 38.3151 15.9642C39.4291 15.7036 40.5132 15.3354 41.551 14.8653L48.6593 16.137C49.1314 16.2182 49.5544 16.469 49.8432 16.839C50.132 17.2091 50.2654 17.671 50.2166 18.1322Z" fill="#3C3A3F"/>
</g>
<path d="M181.707 35.3848C181.246 35.6074 180.743 35.8066 180.197 35.9824C179.737 36.1348 179.203 36.2695 178.597 36.3867C177.991 36.5156 177.355 36.5801 176.688 36.5801C175.282 36.5801 174.263 36.2637 173.633 35.6309C173.003 34.998 172.687 33.9668 172.687 32.5371V20.584H170.305V19.4062L172.851 18.2461L174.524 14.4316H176.161V18.791H181.416V20.584H176.161V30.6387C176.161 31.3535 176.221 31.9629 176.342 32.4668C176.476 32.959 176.664 33.3633 176.906 33.6797C177.161 33.9844 177.47 34.207 177.834 34.3477C178.209 34.4883 178.646 34.5586 179.143 34.5586C179.506 34.5586 179.84 34.5293 180.143 34.4707C180.458 34.4121 180.731 34.3418 180.961 34.2598C181.228 34.166 181.476 34.0605 181.707 33.9434V35.3848Z" fill="#FF4444"/>
<path d="M170.534 11.7773C170.534 12.1406 170.455 12.4453 170.297 12.6914C170.152 12.9258 169.976 13.1191 169.77 13.2715C169.576 13.4121 169.382 13.5176 169.188 13.5879C169.006 13.6582 168.879 13.6992 168.806 13.7109C168.782 13.6875 168.679 13.6172 168.497 13.5C168.327 13.3711 168.115 13.2246 167.861 13.0605C167.618 12.8848 167.351 12.7031 167.06 12.5156C166.782 12.3281 166.521 12.1523 166.279 11.9883C166.036 11.8125 165.83 11.6719 165.66 11.5664C165.491 11.4492 165.4 11.3848 165.387 11.373C165.121 11.5137 164.854 11.7129 164.587 11.9707C164.333 12.2285 164.096 12.5742 163.878 13.0078C163.672 13.4414 163.502 13.9688 163.369 14.5898C163.248 15.1992 163.187 15.9258 163.187 16.7695V19.0723H167.806V20.918H163.187V33.8379C163.187 34.0605 163.26 34.248 163.405 34.4004C163.563 34.541 163.751 34.6172 163.969 34.6289L166.169 34.7344V36.1406H157.114V34.7344L158.95 34.6289C159.168 34.6055 159.35 34.5234 159.496 34.3828C159.653 34.2422 159.732 34.0605 159.732 33.8379V20.918H157.35V19.6523L159.732 19.002C159.732 18.4043 159.75 17.8711 159.787 17.4023C159.835 16.9219 159.908 16.4766 160.005 16.0664C160.114 15.6445 160.247 15.2402 160.405 14.8535C160.563 14.4551 160.757 14.0391 160.987 13.6055C161.351 12.9258 161.769 12.3398 162.242 11.8477C162.727 11.3438 163.242 10.9277 163.787 10.5996C164.345 10.2715 164.921 10.0254 165.515 9.86133C166.121 9.69727 166.727 9.61523 167.333 9.61523C167.854 9.61523 168.315 9.67383 168.715 9.79102C169.115 9.9082 169.449 10.0664 169.715 10.2656C169.994 10.4648 170.2 10.6934 170.334 10.9512C170.467 11.209 170.534 11.4844 170.534 11.7773Z" fill="#FF4444"/>
<path d="M151.723 12.8496C151.723 13.1543 151.662 13.4473 151.541 13.7285C151.432 13.998 151.275 14.2324 151.068 14.4316C150.862 14.6309 150.62 14.7891 150.341 14.9062C150.074 15.0234 149.783 15.082 149.468 15.082C149.153 15.082 148.85 15.0234 148.559 14.9062C148.28 14.7891 148.038 14.6309 147.832 14.4316C147.626 14.2324 147.462 13.998 147.341 13.7285C147.219 13.4473 147.159 13.1543 147.159 12.8496C147.159 12.5449 147.219 12.2578 147.341 11.9883C147.462 11.7188 147.626 11.4844 147.832 11.2852C148.038 11.0859 148.28 10.9336 148.559 10.8281C148.85 10.7109 149.153 10.6523 149.468 10.6523C149.783 10.6523 150.074 10.7109 150.341 10.8281C150.62 10.9336 150.862 11.0859 151.068 11.2852C151.275 11.4844 151.432 11.7188 151.541 11.9883C151.662 12.2578 151.723 12.5449 151.723 12.8496ZM144.886 36.1406V34.7344L146.704 34.6289C146.935 34.6055 147.122 34.5234 147.268 34.3828C147.413 34.2422 147.486 34.0605 147.486 33.8379V20.9883H144.922V19.7227L149.468 18.3516H150.941V33.8379C150.941 34.0605 151.014 34.2422 151.159 34.3828C151.317 34.5234 151.505 34.6055 151.723 34.6289L153.632 34.7344V36.1406H144.886Z" fill="#FF4444"/>
<path d="M139.659 26.209C139.392 26.2324 139.192 26.3203 139.059 26.4727C138.938 26.6133 138.877 26.7773 138.877 26.9648V35.2793C138.125 35.5488 137.325 35.7891 136.477 36C135.749 36.1875 134.913 36.3516 133.967 36.4922C133.034 36.6445 132.064 36.7207 131.058 36.7207C129.676 36.7207 128.391 36.5625 127.203 36.2461C126.027 35.9297 124.954 35.4844 123.984 34.9102C123.026 34.3359 122.178 33.6562 121.438 32.8711C120.699 32.0742 120.074 31.207 119.565 30.2695C119.068 29.332 118.692 28.3359 118.438 27.2812C118.183 26.2148 118.056 25.125 118.056 24.0117C118.056 22.125 118.365 20.4082 118.983 18.8613C119.602 17.3027 120.493 15.9727 121.657 14.8711C122.82 13.7695 124.233 12.9199 125.893 12.3223C127.566 11.7129 129.445 11.4082 131.531 11.4082C132.161 11.4082 132.767 11.4434 133.349 11.5137C133.943 11.5723 134.513 11.6543 135.058 11.7598C135.604 11.8535 136.137 11.9648 136.659 12.0938L138.222 12.4805L138.841 12.6387V18.457H136.604L136.004 15.2227C135.968 15.0117 135.877 14.8359 135.731 14.6953C135.586 14.543 135.428 14.4316 135.258 14.3613C135.21 14.3496 135.137 14.3203 135.04 14.2734C134.846 14.1914 134.622 14.1035 134.367 14.0098C134.113 13.916 133.828 13.8281 133.513 13.7461C133.21 13.6523 132.876 13.5762 132.513 13.5176C132.161 13.459 131.785 13.4297 131.385 13.4297C130.039 13.4297 128.809 13.6582 127.694 14.1152C126.578 14.5723 125.621 15.2402 124.821 16.1191C124.02 16.998 123.396 18.0879 122.948 19.3887C122.511 20.6777 122.293 22.1602 122.293 23.8359C122.293 25.5586 122.517 27.0938 122.966 28.4414C123.414 29.7891 124.051 30.9258 124.875 31.8516C125.712 32.7773 126.718 33.4863 127.894 33.9785C129.07 34.459 130.385 34.6992 131.84 34.6992C132.252 34.6992 132.646 34.6699 133.022 34.6113C133.397 34.5527 133.731 34.4941 134.022 34.4355C134.313 34.3652 134.555 34.3008 134.749 34.2422C134.943 34.1836 135.064 34.1543 135.113 34.1543V26.9648C135.113 26.7773 135.046 26.6133 134.913 26.4727C134.792 26.3203 134.598 26.2324 134.331 26.209L131.84 26.0332V24.4688H141.55V26.0332L139.659 26.209Z" fill="#FF4444"/>
<path d="M113.156 20.4082L106.01 37.248C105.889 37.541 105.719 37.9336 105.501 38.4258C105.283 38.918 105.022 39.4395 104.719 39.9902C104.428 40.5527 104.101 41.1035 103.737 41.6426C103.385 42.1816 103.016 42.6387 102.628 43.0137C102.179 43.4473 101.682 43.7812 101.137 44.0156C100.603 44.2617 100.021 44.3848 99.391 44.3848C98.9545 44.3848 98.5666 44.3262 98.2272 44.209C97.8877 44.1035 97.6028 43.957 97.3725 43.7695C97.1422 43.582 96.9664 43.3594 96.8452 43.1016C96.7239 42.8555 96.6633 42.5977 96.6633 42.3281C96.6633 41.918 96.7542 41.5371 96.9361 41.1855C97.1301 40.8457 97.4392 40.5059 97.8635 40.166L101.355 41.7129C101.658 41.4199 101.967 41.0332 102.282 40.5527C102.597 40.084 102.894 39.5859 103.173 39.0586C103.452 38.5312 103.707 38.0039 103.937 37.4766C104.167 36.9609 104.349 36.5039 104.483 36.1055L98.1544 20.4082L96.0996 20.1973V18.791H104.337V20.1973L102.555 20.3027C102.385 20.3262 102.24 20.3906 102.119 20.4961C102.009 20.6016 101.955 20.7305 101.955 20.8828C101.955 20.9766 101.967 21.0469 101.991 21.0938L106.319 31.7109L110.738 21.0938C110.774 21.0234 110.792 20.9473 110.792 20.8652C110.792 20.7246 110.738 20.6016 110.629 20.4961C110.532 20.3789 110.399 20.3145 110.229 20.3027L108.465 20.1973V18.791H115.102V20.1973L113.156 20.4082Z" fill="#FF4444"/>
<path d="M84.0718 36.1406V34.5938L86.0539 34.4531C86.3206 34.4297 86.5206 34.3359 86.654 34.1719C86.7994 34.0078 86.8722 33.8379 86.8722 33.6621V13.8164L78.3074 36.1406H76.4526L68.1787 14.1504V33.6621C68.1787 33.8379 68.2454 34.0078 68.3788 34.1719C68.5242 34.3359 68.7303 34.4297 68.997 34.4531L71.1246 34.5938V36.1406H63.069V34.5938L65.1965 34.4531C65.4632 34.4297 65.6572 34.3359 65.7784 34.1719C65.9118 34.0078 65.9785 33.8379 65.9785 33.6621V14.4668C65.9785 14.291 65.9118 14.1211 65.7784 13.957C65.6572 13.793 65.4632 13.6992 65.1965 13.6758L63.069 13.5352V11.9883H71.4155V12.9551L78.1619 30.6387L84.9083 13.0605V11.9883H93.4731V13.5352L91.4546 13.6758C91.1879 13.6992 90.9818 13.793 90.8363 13.957C90.703 14.1211 90.6363 14.291 90.6363 14.4668V33.6621C90.6363 33.8379 90.703 34.0078 90.8363 34.1719C90.9818 34.3359 91.1879 34.4297 91.4546 34.4531L93.4731 34.5938V36.1406H84.0718Z" fill="#FF4444"/>
<defs>
<clipPath id="clip0_2_86">
<rect width="49.6552" height="48" fill="white" transform="translate(1)"/>
</clipPath>
</defs>
</svg>
